<?xml version="1.0" encoding="UTF-8"?>
<svg version="1.1" xmlns="http://www.w3.org/2000/svg" width="512" height="512">
<path d="M0 0 C1.01201477 0.00054382 2.02402954 0.00108765 3.06671143 0.00164795 C19.59887291 0.04238923 35.523992 0.95817716 51.75 4.375 C52.78125 4.58930664 53.8125 4.80361328 54.875 5.02441406 C101.10680927 14.94980561 143.72188765 37.60106665 177.75 70.375 C178.7390332 71.32318604 178.7390332 71.32318604 179.74804688 72.29052734 C189.23630305 81.43497479 197.9762044 90.73234009 205.75 101.375 C206.60806152 102.52605017 207.46613451 103.67709177 208.32421875 104.828125 C214.36236829 113.01930614 219.72095521 121.53304105 224.75 130.375 C225.11448242 131.00680176 225.47896484 131.63860352 225.85449219 132.28955078 C240.78473018 158.37464001 250.26385054 187.71085114 254.75 217.375 C254.92660156 218.49745117 255.10320312 219.61990234 255.28515625 220.77636719 C256.9420586 232.38947743 257.14873513 243.90679945 257.125 255.625 C257.12418427 257.14302216 257.12418427 257.14302216 257.12335205 258.69171143 C257.08261077 275.22387291 256.16682284 291.148992 252.75 307.375 C252.42854004 308.921875 252.42854004 308.921875 252.10058594 310.5 C242.17519439 356.73180927 219.52393335 399.34688765 186.75 433.375 C186.11787598 434.03435547 185.48575195 434.69371094 184.83447266 435.37304688 C175.69002521 444.86130305 166.39265991 453.6012044 155.75 461.375 C154.59894983 462.23306152 153.44790823 463.09113451 152.296875 463.94921875 C144.10569386 469.98736829 135.59195895 475.34595521 126.75 480.375 C126.11819824 480.73948242 125.48639648 481.10396484 124.83544922 481.47949219 C98.75035999 496.40973018 69.41414886 505.88885054 39.75 510.375 C38.62754883 510.55160156 37.50509766 510.72820312 36.34863281 510.91015625 C24.73552257 512.5670586 13.21820055 512.77373513 1.5 512.75 C-0.01802216 512.74918427 -0.01802216 512.74918427 -1.56671143 512.74835205 C-18.09887291 512.70761077 -34.023992 511.79182284 -50.25 508.375 C-51.796875 508.05354004 -51.796875 508.05354004 -53.375 507.72558594 C-99.60680927 497.80019439 -142.22188765 475.14893335 -176.25 442.375 C-176.90935547 441.74287598 -177.56871094 441.11075195 -178.24804688 440.45947266 C-187.73630305 431.31502521 -196.4762044 422.01765991 -204.25 411.375 C-205.10806152 410.22394983 -205.96613451 409.07290823 -206.82421875 407.921875 C-212.86236829 399.73069386 -218.22095521 391.21695895 -223.25 382.375 C-223.61448242 381.74319824 -223.97896484 381.11139648 -224.35449219 380.46044922 C-239.28473018 354.37535999 -248.76385054 325.03914886 -253.25 295.375 C-253.51490234 293.69132324 -253.51490234 293.69132324 -253.78515625 291.97363281 C-255.4420586 280.36052257 -255.64873513 268.84320055 -255.625 257.125 C-255.62445618 256.11298523 -255.62391235 255.10097046 -255.62335205 254.05828857 C-255.58261077 237.52612709 -254.66682284 221.601008 -251.25 205.375 C-251.03569336 204.34375 -250.82138672 203.3125 -250.60058594 202.25 C-240.67519439 156.01819073 -218.02393335 113.40311235 -185.25 79.375 C-184.61787598 78.71564453 -183.98575195 78.05628906 -183.33447266 77.37695312 C-174.19002521 67.88869695 -164.89265991 59.1487956 -154.25 51.375 C-153.09894983 50.51693848 -151.94790823 49.65886549 -150.796875 48.80078125 C-142.60569386 42.76263171 -134.09195895 37.40404479 -125.25 32.375 C-124.61819824 32.01051758 -123.98639648 31.64603516 -123.33544922 31.27050781 C-97.25035999 16.34026982 -67.91414886 6.86114946 -38.25 2.375 C-37.12754883 2.19839844 -36.00509766 2.02179687 -34.84863281 1.83984375 C-23.23552257 0.1829414 -11.71820055 -0.02373513 0 0 Z " fill="#000000" transform="translate(255.25,-0.375)"/>
<path d="M0 0 C2.03191764 -0.00966314 4.06280269 -0.04074763 6.09448242 -0.07226562 C23.8264563 -0.21611345 41.36018293 4.28939273 54.8659668 16.24023438 C63.75748522 25.61337671 66.38330773 36.34730564 66.13549805 48.94335938 C65.33159068 66.70060385 55.26511929 81.34118678 42.8659668 93.24023438 C37.82482914 97.66483001 32.53582238 101.65927295 26.8659668 105.24023438 C29.29884915 107.1986184 31.73662398 109.14215654 34.2253418 111.02929688 C45.3113269 119.5430436 52.40289109 128.46783576 57.8659668 141.24023438 C58.25268555 142.11808594 58.6394043 142.9959375 59.0378418 143.90039062 C60.31616093 149.05587582 60.19407398 154.13690024 60.1784668 159.42773438 C60.19458008 160.50087891 60.21069336 161.57402344 60.22729492 162.6796875 C60.23742746 179.4287784 53.62290086 193.36028307 41.8659668 205.24023438 C34.54639496 211.21463775 26.69520747 215.82491205 17.8659668 219.24023438 C16.94557617 219.60890625 16.02518555 219.97757813 15.0769043 220.35742188 C-5.78933034 228.06274302 -28.23844914 225.69378993 -49.75317383 222.66357422 C-63.9044336 220.24411923 -63.9044336 220.24411923 -77.5715332 223.24023438 C-80.95305766 224.84464796 -82.21835595 225.24023438 -86.1340332 225.24023438 C-86.52992859 222.00708873 -86.78096499 219.36802733 -85.11450195 216.46289062 C-81.68957078 212.30202383 -77.58789695 209.22043418 -73.3137207 205.98242188 C-59.08479182 194.60947872 -59.19024465 173.83226333 -57.22387695 157.01733398 C-56.52440593 151.0802756 -55.65898582 145.19973217 -54.64941406 139.30761719 C-53.75157231 133.96394887 -52.98110811 128.60149626 -52.1965332 123.24023438 C-51.84381733 120.84437914 -51.49095178 118.44854594 -51.13793945 116.05273438 C-50.96665527 114.88871094 -50.79537109 113.7246875 -50.61889648 112.52539062 C-49.84998028 107.31565425 -49.06681544 102.1080901 -48.28100586 96.90087891 C-47.55129791 92.05486972 -46.83610447 87.20694949 -46.13012695 82.35742188 C-45.95481445 81.15859375 -45.77950195 79.95976562 -45.59887695 78.72460938 C-45.2568724 76.38377822 -44.91690409 74.04264832 -44.5793457 71.70117188 C-42.32939189 56.33563366 -40.50633907 46.64833982 -27.52075195 36.90429688 C-22.16478342 33.17002094 -18.72405453 31.8448331 -12.1340332 32.24023438 C-11.3840332 33.92773438 -11.3840332 33.92773438 -11.1340332 36.24023438 C-12.46736654 37.90690104 -13.80069987 39.57356771 -15.1340332 41.24023438 C-18.63775445 48.73315146 -19.22743699 57.07002819 -20.1965332 65.17773438 C-21.14640116 72.9101936 -22.10050733 80.57210507 -23.72119141 88.19555664 C-24.22734763 90.70239185 -24.50206386 93.19144473 -24.6965332 95.74023438 C-25.02916429 100.03049655 -25.02916429 100.03049655 -26.1340332 102.24023438 C-22.08046716 102.22054563 -18.02865695 102.16803706 -13.97583008 102.08764648 C-12.60289971 102.06473226 -11.22980019 102.05013446 -9.85668945 102.04467773 C3.35237216 101.98191538 13.85465508 99.03277771 23.8659668 90.24023438 C24.45893555 89.74007812 25.0519043 89.23992187 25.6628418 88.72460938 C34.08977767 81.04342004 40.50772883 69.68490936 41.14331055 58.22070312 C41.45224063 48.72974279 41.22020608 40.29646344 35.2409668 32.49023438 C29.5444357 26.41393454 21.77084744 23.35879535 13.8659668 21.24023438 C12.75801758 20.93085937 12.75801758 20.93085937 11.62768555 20.61523438 C-11.97781585 15.1938752 -36.38912724 20.2579806 -56.8840332 32.49023438 C-64.64509282 37.69939204 -72.19744394 44.08932288 -77.4465332 51.86523438 C-79.62420198 55.05048124 -79.62420198 55.05048124 -82.04418945 55.95117188 C-84.0090332 56.24023438 -84.0090332 56.24023438 -87.1340332 56.24023438 C-86.65848467 50.15321312 -85.32289999 45.63642242 -82.5090332 40.24023438 C-81.96400146 39.18715088 -81.96400146 39.18715088 -81.40795898 38.11279297 C-72.56512441 21.50495294 -55.22231138 11.16665525 -37.65454102 5.43066406 C-25.00752167 1.64869551 -13.21413767 0.03784027 0 0 Z " fill="#FBFBFB" transform="translate(149.134033203125,102.759765625)"/>
<path d="M0 0 C4.94219151 4.86585142 7.29319374 9.07329931 7.4375 16 C7.33243019 23.18515863 5.28244785 28.68105141 2 35 C1.49919922 36.01320313 1.49919922 36.01320313 0.98828125 37.046875 C0.0625 38.6875 0.0625 38.6875 -2 41 C-5.25 41.875 -5.25 41.875 -8 42 C-9.93694955 37.84939382 -11.33111541 33.8873545 -12.4375 29.4375 C-13.62478977 24.83990981 -15.18720712 21.78272146 -18 18 C-18 17.34 -18 16.68 -18 16 C-20.80524845 14.57824908 -23.63240199 13.22890116 -26.5 11.9375 C-27.2528125 11.59589844 -28.005625 11.25429687 -28.78125 10.90234375 C-39.57140394 6.51409452 -55.41240215 7.79191655 -66 12 C-87.84323581 22.34679591 -101.52170838 43.56795251 -109.8203125 65.65234375 C-111.37610301 70.05577389 -112.71662319 74.51077488 -114 79 C-114.19287598 79.64437012 -114.38575195 80.28874023 -114.58447266 80.95263672 C-122.78671031 108.59138871 -126.83006944 145.06209326 -113.6875 171.75 C-107.93709709 182.08616725 -102.14004198 187.61379819 -91 192 C-77.40288668 195.46843423 -64.96343961 191.71280596 -53.125 184.8125 C-44.86644041 179.22976237 -37.62183554 170.25665002 -35.09375 160.50390625 C-34.8978125 159.20324219 -34.701875 157.90257812 -34.5 156.5625 C-34.32573486 155.45455078 -34.32573486 155.45455078 -34.14794922 154.32421875 C-33.43564496 149.6139095 -32.86381367 144.89203914 -32.33587646 140.15769958 C-32.09898355 138.0354902 -31.85554293 135.91410275 -31.61132812 133.79272461 C-31.28753138 130.97900266 -30.99070105 128.16415834 -30.70898438 125.34594727 C-29.4863233 114.02041117 -26.55883541 105.55238172 -18.11328125 97.6953125 C-13.08602947 93.66236006 -8.58437777 91.34156222 -2 92 C-1.359375 93.796875 -1.359375 93.796875 -1 96 C-2.11375 97.60875 -2.11375 97.60875 -3.25 99.25 C-5.87317562 103.16964101 -6.72877471 106.7004017 -7.55078125 111.33203125 C-7.67578506 112.03505875 -7.80078888 112.73808624 -7.92958069 113.4624176 C-9.19261857 120.75496323 -10.0958811 128.08564496 -10.9375 135.4375 C-11.10477387 136.85830804 -11.27267643 138.27904218 -11.44116211 139.69970703 C-11.7899085 142.6460191 -12.13600572 145.59262085 -12.47949219 148.53955078 C-25.02448104 256.14329488 -25.02448104 256.14329488 -59 284 C-76.09848566 296.17586431 -92.46494418 298.32008504 -113 297 C-122.08653714 295.41776717 -130.27831026 291.09385872 -136.5 284.25 C-139.46313594 279.80529609 -139.68304011 276.26342676 -139 271 C-136.34334234 262.82267814 -130.29734319 254.24771695 -122.91015625 249.71875 C-121 249 -121 249 -118 249 C-117.36384766 250.57587891 -117.36384766 250.57587891 -116.71484375 252.18359375 C-112.0493394 263.46763554 -107.51000849 273.3951263 -96 279 C-88.99013247 281.33662251 -79.19353481 281.19178811 -72.05859375 279.1640625 C-69.7564849 277.97096956 -67.94759119 276.70833969 -66 275 C-65.38125 274.46503906 -64.7625 273.93007813 -64.125 273.37890625 C-49.54459113 258.76707409 -47.15681388 231.71385921 -44.1875 212.375 C-43.87400638 210.38526525 -43.55955807 208.39568068 -43.24414062 206.40625 C-42.48512602 201.60581887 -41.73888735 196.80356851 -41 192 C-41.78648926 192.67184326 -42.57297852 193.34368652 -43.38330078 194.03588867 C-60.70619238 208.72773627 -78.73791707 217.19611947 -101.89941406 216.17919922 C-113.99322151 215.14748668 -123.79911574 207.96667939 -131.9375 199.4609375 C-135.41904144 195.30682555 -137.77303177 190.9240742 -140 186 C-140.5259375 184.85015625 -141.051875 183.7003125 -141.59375 182.515625 C-152.24988184 157.69017292 -151.47436183 126.99577262 -146 101 C-145.73024686 99.58858406 -145.46071436 98.17712593 -145.19140625 96.765625 C-138.120694 61.78933067 -116.48215459 28.09377537 -86.9375 7.9375 C-61.50318445 -8.80325662 -27.39593294 -17.72280106 0 0 Z " fill="#FBFBFB" transform="translate(443,112)"/>
<path d="M0 0 C4.64056727 -0.14995619 9.27968102 -0.25795465 13.92211914 -0.32958984 C15.49626269 -0.35949391 17.07024356 -0.40023431 18.64379883 -0.45263672 C28.92865794 -0.78619972 36.3859672 -0.33404834 45 6 C45.99515625 6.72703125 46.9903125 7.4540625 48.015625 8.203125 C58.71974645 18.0089985 66.46611844 29.40178644 67.37109375 44.26171875 C67.68195705 55.55768226 66.36867807 65.58548862 59.375 74.9375 C48.97308042 85.77058723 33.01927565 87.85668391 18.796875 88.1953125 C-7.41478003 88.52840666 -7.41478003 88.52840666 -18 85 C-17.01267601 83.01653663 -16.01943332 81.03750023 -15 79.0703125 C-14.67 78.42835938 -14.34 77.78640625 -14 77.125 C-13.67 76.48820312 -13.34 75.85140625 -13 75.1953125 C-10.27567919 69.21457698 -9.24187087 63.19344382 -8.25 56.75 C-8.08661133 55.71109619 -7.92322266 54.67219238 -7.75488281 53.60180664 C-4.98843205 35.76223046 -2.51854792 17.87588598 0 0 Z " fill="#010101" transform="translate(120,221)"/>
<path d="M0 0 C3.51338175 2.00438048 5.69516619 4.08549858 7 8 C7.75260404 16.88072771 4.80793806 22.06797432 -0.8125 28.8125 C-5.41131811 33.7519713 -8.86320677 35.56733886 -15.625 36.5 C-19.93481732 35.86150855 -21.30234621 34.33239586 -24 31 C-26.11403607 26.77192785 -25.70832746 21.19427527 -24.28125 16.7734375 C-19.55697149 6.90579126 -11.62786362 -1.87546187 0 0 Z " fill="#FAFAFA" transform="translate(255,295)"/>
</svg>
